name C:/MyDriveSym/Projects/mobilecap/Data\Session20210820_0002\mocap\ForceDataProcessed\walking1_forces.mot
datacolumns 19
datarows 24
range 1.04200000 1.05350000
endheader 
time	R_ground_force_vx	R_ground_force_vy	R_ground_force_vz	R_ground_force_px	R_ground_force_py	R_ground_force_pz	R_ground_torque_x	R_ground_torque_y	R_ground_torque_z	L_ground_force_vx	L_ground_force_vy	L_ground_force_vz	L_ground_force_px	L_ground_force_py	L_ground_force_pz	L_ground_torque_x	L_ground_torque_y	L_ground_torque_z	
          1.04200000	          0.00000000	          0.00000000	          0.00000000	          1.31621600	          0.00000000	         -0.13192600	          0.00000000	          0.00000000	          0.00000000	         48.67239100	        842.85768100	         36.02987400	          0.94798200	          0.00600000	         -0.24465000	          0.00000000	          5.46126000	          0.00000000	
          1.04250000	          0.00000000	          0.00000000	          0.00000000	          1.31758800	          0.00000000	         -0.13188600	          0.00000000	          0.00000000	          0.00000000	         48.88304000	        843.82686300	         36.07631600	          0.94832800	          0.00600000	         -0.24462700	          0.00000000	          5.46594900	          0.00000000	
          1.04300000	          0.00000000	          0.00000000	          0.00000000	          1.31896000	          0.00000000	         -0.13184700	          0.00000000	          0.00000000	          0.00000000	         49.09451500	        844.79289900	         36.12205200	          0.94867300	          0.00600000	         -0.24460300	          0.00000000	          5.47055100	          0.00000000	
          1.04350000	          0.00000000	          0.00000000	          0.00000000	          1.32033200	          0.00000000	         -0.13180700	          0.00000000	          0.00000000	          0.00000000	         49.30681800	        845.75567400	         36.16707200	          0.94901700	          0.00600000	         -0.24457900	          0.00000000	          5.47506500	          0.00000000	
          1.04400000	          0.00000000	          0.00000000	          0.00000000	          1.32170400	          0.00000000	         -0.13176700	          0.00000000	          0.00000000	          0.00000000	         49.51995300	        846.71507300	         36.21136800	          0.94936100	          0.00600000	         -0.24455500	          0.00000000	          5.47949000	          0.00000000	
          1.04450000	          0.00000000	          0.00000000	          0.00000000	          1.32307500	          0.00000000	         -0.13172700	          0.00000000	          0.00000000	          0.00000000	         49.73392200	        847.67097900	         36.25493100	          0.94970500	          0.00600000	         -0.24453100	          0.00000000	          5.48382700	          0.00000000	
          1.04500000	          0.00000000	          0.00000000	          0.00000000	          1.32444700	          0.00000000	         -0.13168700	          0.00000000	          0.00000000	          0.00000000	         49.94872700	        848.62327600	         36.29775100	          0.95004800	          0.00600000	         -0.24450700	          0.00000000	          5.48807600	          0.00000000	
          1.04550000	          0.00000000	          0.00000000	          0.00000000	          1.32581900	          0.00000000	         -0.13164700	          0.00000000	          0.00000000	          0.00000000	         50.16437300	        849.57184700	         36.33982100	          0.95039000	          0.00600000	         -0.24448200	          0.00000000	          5.49223700	          0.00000000	
          1.04600000	          0.00000000	          0.00000000	          0.00000000	          1.32719100	          0.00000000	         -0.13160700	          0.00000000	          0.00000000	          0.00000000	         50.38086100	        850.51657400	         36.38113100	          0.95073200	          0.00600000	         -0.24445700	          0.00000000	          5.49630900	          0.00000000	
          1.04650000	          0.00000000	          0.00000000	          0.00000000	          1.32856300	          0.00000000	         -0.13156800	          0.00000000	          0.00000000	          0.00000000	         50.59819400	        851.45733900	         36.42167200	          0.95107400	          0.00600000	         -0.24443300	          0.00000000	          5.50029300	          0.00000000	
          1.04700000	          0.00000000	          0.00000000	          0.00000000	          1.32993500	          0.00000000	         -0.13152800	          0.00000000	          0.00000000	          0.00000000	         50.81637400	        852.39402300	         36.46143500	          0.95141500	          0.00600000	         -0.24440800	          0.00000000	          5.50418800	          0.00000000	
          1.04750000	          0.00000000	          0.00000000	          0.00000000	          1.33130700	          0.00000000	         -0.13148800	          0.00000000	          0.00000000	          0.00000000	         51.03540300	        853.32650700	         36.50041200	          0.95175500	          0.00600000	         -0.24438200	          0.00000000	          5.50799500	          0.00000000	
          1.04800000	          0.00000000	          0.00000000	          0.00000000	          1.33267900	          0.00000000	         -0.13144800	          0.00000000	          0.00000000	          0.00000000	         51.25528500	        854.25467200	         36.53859300	          0.95209500	          0.00600000	         -0.24435700	          0.00000000	          5.51171400	          0.00000000	
          1.04850000	          0.00000000	          0.00000000	          0.00000000	          1.33405100	          0.00000000	         -0.13140800	          0.00000000	          0.00000000	          0.00000000	         51.47602000	        855.17839600	         36.57597000	          0.95243400	          0.00600000	         -0.24433200	          0.00000000	          5.51534400	          0.00000000	
          1.04900000	          0.00000000	          0.00000000	          0.00000000	          1.33542300	          0.00000000	         -0.13136800	          0.00000000	          0.00000000	          0.00000000	         51.69761100	        856.09756100	         36.61253200	          0.95277300	          0.00600000	         -0.24430600	          0.00000000	          5.51888600	          0.00000000	
          1.04950000	          0.00000000	          0.00000000	          0.00000000	          1.33679500	          0.00000000	         -0.13132800	          0.00000000	          0.00000000	          0.00000000	         51.92006000	        857.01204400	         36.64827300	          0.95311100	          0.00600000	         -0.24428000	          0.00000000	          5.52233900	          0.00000000	
          1.05000000	          0.00000000	          0.00000000	          0.00000000	          1.33816700	          0.00000000	         -0.13128900	          0.00000000	          0.00000000	          0.00000000	         52.14336800	        857.92172500	         36.68318200	          0.95344800	          0.00600000	         -0.24425400	          0.00000000	          5.52570500	          0.00000000	
          1.05050000	          0.00000000	          0.00000000	          0.00000000	          1.33953900	          0.00000000	         -0.13124900	          0.00000000	          0.00000000	          0.00000000	         52.36753700	        858.82648100	         36.71725000	          0.95378500	          0.00600000	         -0.24422800	          0.00000000	          5.52898200	          0.00000000	
          1.05100000	          0.00000000	          0.00000000	          0.00000000	          1.34091100	          0.00000000	         -0.13120900	          0.00000000	          0.00000000	          0.00000000	         52.59256900	        859.72619000	         36.75046800	          0.95412200	          0.00600000	         -0.24420200	          0.00000000	          5.53217200	          0.00000000	
          1.05150000	          0.00000000	          0.00000000	          0.00000000	          1.34228300	          0.00000000	         -0.13116900	          0.00000000	          0.00000000	          0.00000000	         52.81846500	        860.62073000	         36.78282900	          0.95445700	          0.00600000	         -0.24417600	          0.00000000	          5.53527400	          0.00000000	
          1.05200000	          0.00000000	          0.00000000	          0.00000000	          1.34365500	          0.00000000	         -0.13112900	          0.00000000	          0.00000000	          0.00000000	         53.04522600	        861.50997700	         36.81432100	          0.95479300	          0.00600000	         -0.24414900	          0.00000000	          5.53828900	          0.00000000	
          1.05250000	          0.00000000	          0.00000000	          0.00000000	          1.34502700	          0.00000000	         -0.13108900	          0.00000000	          0.00000000	          0.00000000	         53.27285400	        862.39380800	         36.84493700	          0.95512700	          0.00600000	         -0.24412200	          0.00000000	          5.54121600	          0.00000000	
          1.05300000	          0.00000000	          0.00000000	          0.00000000	          1.34639900	          0.00000000	         -0.13104900	          0.00000000	          0.00000000	          0.00000000	         53.50134900	        863.27209800	         36.87466700	          0.95546100	          0.00600000	         -0.24409600	          0.00000000	          5.54405600	          0.00000000	
          1.05350000	          0.00000000	          0.00000000	          0.00000000	          1.34777100	          0.00000000	         -0.13101000	          0.00000000	          0.00000000	          0.00000000	         53.73071300	        864.14472500	         36.90350300	          0.95579400	          0.00600000	         -0.24406900	          0.00000000	          5.54681000	          0.00000000	
